<svg width="84" height="102" viewBox="0 0 84 102" fill="none" xmlns="http://www.w3.org/2000/svg">
<rect x="60.8891" y="30.8212" width="42" height="66" rx="4.5" transform="rotate(61.064 60.8891 30.8212)" fill="black" stroke="#DA3093" stroke-width="3"/>
<rect x="34.6925" y="8.04561" width="42" height="66" rx="4.5" transform="rotate(29.6466 34.6925 8.04561)" fill="black" stroke="#DA3093" stroke-width="3"/>
<rect x="2.5" y="1.5" width="42" height="66" rx="4.5" fill="black" stroke="#DA3093" stroke-width="3"/>
<circle cx="23.367" cy="33.802" r="17.802" fill="#FF69CB"/>
<path d="M19.8849 18.9563C20.1811 19.1082 20.4038 19.3147 20.557 19.4777C20.7446 19.6775 20.9136 19.9072 21.066 20.1411L21.0647 20.1416C21.4714 20.7473 21.6927 21.4286 21.7515 22.1499C21.8051 22.6726 21.8399 23.3827 21.5876 23.9779C21.4076 24.4026 21.1133 24.7797 20.7003 25.0528L20.7008 25.0541L13.2171 30.1935L14.9608 38.7295L14.9599 38.7291C15.073 39.2689 14.9786 39.7758 14.7986 40.2008C14.6559 40.5373 14.4313 40.8042 14.2668 40.9798C14.083 41.1761 13.8638 41.3736 13.6269 41.5688L13.6136 41.5801L13.5998 41.5902C13.032 42.037 12.3905 42.3568 11.6796 42.4946L11.6437 42.5016L11.6086 42.5069C11.1617 42.5715 10.4821 42.6351 9.88492 42.382C9.17478 42.0809 8.81421 41.4723 8.68902 40.8993L8.68157 40.8643L8.6754 40.8288L6.75659 29.4779L6.75787 29.4774C6.65969 28.9942 6.62028 28.4287 6.78915 27.8721L6.87856 27.6236L6.97787 27.4143C7.20776 26.9769 7.54142 26.6297 7.93387 26.3675L17.7549 19.1344L17.7608 19.1305L17.7671 19.1257C18.3334 18.7175 19.0594 18.6012 19.7528 18.895L19.8849 18.9563Z" fill="black" stroke="#FF70CD" stroke-width="3"/>
<path d="M28.5345 49.0496C28.1525 48.909 27.875 48.6669 27.7009 48.4899C27.5125 48.2982 27.3442 48.0776 27.1944 47.856L27.1956 47.8554C26.7902 47.2726 26.5684 46.6114 26.4969 45.9145L26.496 45.9142C26.4952 45.9079 26.4955 45.9014 26.4947 45.895C26.4939 45.8869 26.4919 45.8789 26.4911 45.8708L26.492 45.8711C26.4317 45.3634 26.394 44.7071 26.6014 44.1434C26.7529 43.7318 27.0095 43.3504 27.3868 43.0557L27.3862 43.0545L34.266 37.4897L32.4281 29.2178L32.429 29.2182C32.3109 28.6991 32.3868 28.2075 32.5389 27.7944C32.6588 27.4686 32.8552 27.2001 33.0038 27.0176C33.1688 26.8148 33.3677 26.6078 33.5837 26.4006L33.5961 26.3896L33.6075 26.3782C34.123 25.9048 34.7196 25.5412 35.3982 25.3525L35.4331 25.3425L35.4692 25.3349C35.722 25.2778 35.9855 25.2332 36.2439 25.2205C36.485 25.2086 36.8269 25.2186 37.1792 25.3483C37.9339 25.6262 38.2966 26.2574 38.4254 26.8028L38.4339 26.8362L38.4399 26.8706L40.5023 37.8548L40.501 37.8554C40.6205 38.3957 40.6653 39.0319 40.4378 39.65C40.2451 40.1731 39.9144 40.5983 39.4989 40.9257L30.5188 48.6769L30.5131 48.6811L30.508 48.6865C29.9951 49.1204 29.2738 49.3217 28.5345 49.0496Z" fill="black" stroke="#FF70CD" stroke-width="3"/>
<circle cx="17.4405" cy="32.766" r="3.45014" fill="black"/>
<circle cx="18.2942" cy="31.6634" r="1.56501" fill="white"/>
<circle cx="16.0445" cy="34.1087" r="1.07595" fill="white"/>
<circle cx="30.3519" cy="32.766" r="3.45014" fill="black"/>
<circle cx="31.2055" cy="31.6634" r="1.56501" fill="white"/>
<circle cx="28.9558" cy="34.1087" r="1.07595" fill="white"/>
<path d="M21.8154 34.8912C21.8154 34.8912 21.8154 37.3366 24.0651 37.3366C26.3148 37.3366 26.217 34.8912 26.217 34.8912" stroke="black" stroke-width="2" stroke-linecap="round"/>
<ellipse cx="16.1423" cy="37.7278" rx="2.34752" ry="1.17376" fill="#FFD2F0"/>
<ellipse cx="31.988" cy="37.5322" rx="2.34752" ry="1.17376" fill="#FFD2F0"/>
</svg>
