<svg width="24" height="29" viewBox="0 0 24 29" fill="none" xmlns="http://www.w3.org/2000/svg">
<path d="M20.6822 5.0147C22.0628 5.01483 23.1822 6.13407 23.1822 7.5147V25.2579L23.1695 25.5137C23.0414 26.7742 21.9765 27.7577 20.6822 27.7579H7.38438C6.00369 27.7579 4.88441 26.6385 4.88438 25.2579V7.5147C4.88438 6.13399 6.00367 5.0147 7.38438 5.0147H20.6822Z" fill="black" stroke="#DA3093"/>
<path d="M16.2979 0.5C17.6784 0.500135 18.7979 1.61937 18.7979 3V20.7432L18.7852 20.999C18.657 22.2595 17.5921 23.243 16.2979 23.2432H3C1.61931 23.2432 0.500027 22.1239 0.5 20.7432V3C0.500001 1.61929 1.61929 0.5 3 0.5H16.2979Z" fill="black" stroke="#DA3093"/>
</svg>
